PathFileType	4	(X/Y/Z)	jog.trc
DataRate	CameraRate	NumFrames	NumMarkers	Units	OrigDataRate	OrigDataStartFrame	OrigNumFrames
250.000000	250.000000	4	51	mm	250.000000	104	837
Frame#	Time	C7			RSH			LSH			MAN			T7			LARM			LELB			LFOREARM			LWR			RARM			RELB			RFOREARM			RWR			RASI			LASI			SACR			P1			P2			P3			LTHLP			LTHLD			LTHAP			LTHAD			LLEPI			LPAT			LTIAP			LTIAD			LTILAT			LLMAL			LHEEL			LMFS			LMFL			LP1MT			LTOE			LP5MT			RTHLP			RTHLD			RTHAP			RTHAD			RLEPI			RPAT			RTIAP			RTIAD			RTILAT			RLMAL			RHEEL			RMFS			RMFL			RP1MT			RTOE			RP5MT			
		X1	Y1	Z1	X2	Y2	Z2	X3	Y3	Z3	X4	Y4	Z4	X5	Y5	Z5	X6	Y6	Z6	X7	Y7	Z7	X8	Y8	Z8	X9	Y9	Z9	X10	Y10	Z10	X11	Y11	Z11	X12	Y12	Z12	X13	Y13	Z13	X14	Y14	Z14	X15	Y15	Z15	X16	Y16	Z16	X17	Y17	Z17	X18	Y18	Z18	X19	Y19	Z19	X20	Y20	Z20	X21	Y21	Z21	X22	Y22	Z22	X23	Y23	Z23	X24	Y24	Z24	X25	Y25	Z25	X26	Y26	Z26	X27	Y27	Z27	X28	Y28	Z28	X29	Y29	Z29	X30	Y30	Z30	X31	Y31	Z31	X32	Y32	Z32	X33	Y33	Z33	X34	Y34	Z34	X35	Y35	Z35	X36	Y36	Z36	X37	Y37	Z37	X38	Y38	Z38	X39	Y39	Z39	X40	Y40	Z40	X41	Y41	Z41	X42	Y42	Z42	X43	Y43	Z43	X44	Y44	Z44	X45	Y45	Z45	X46	Y46	Z46	X47	Y47	Z47	X48	Y48	Z48	X49	Y49	Z49	X50	Y50	Z50	X51	Y51	Z51	

105	0.416	-4013.278320312502	1598.354370117188	256.8117675781251	-3958.180908203127	1588.752563476563	409.6458129882815	-4023.259277343752	1591.129150390626	97.50945281982428	-3874.851562500002	1506.570434570313	225.882781982422	-4077.492187500002	1411.389892578125	261.2787475585939	-4149.604492187502	1464.793823242188	19.36838150024415	-4251.786621093752	1368.36669921875	-4.695794582366945	-4216.704589843752	1222.979614257813	-17.98458862304688	-4193.972656250002	1088.918212890625	-10.96551513671875	-3948.083984375002	1414.921142578125	514.1701660156252	-3947.537841796877	1285.548217773438	566.9096679687502	-3839.618164062502	1335.713500976563	496.265319824219	-3742.163085937502	1379.805541992188	423.0596923828127	-3894.300781250002	1104.980590820313	336.5117187500001	-3911.302001953127	1121.849243164063	124.8536987304688	-4077.601562500002	1179.27490234375	245.5106964111329	-4094.761230468752	1149.9462890625	192.9988098144532	-4089.310302734377	1151.579956054688	300.0012817382814	-4124.039062500002	1098.021728515625	247.2663879394532	-3891.854980468752	847.8237304687505	65.19708251953128	-3825.838867187502	758.1216430664065	84.86148834228518	-3774.014404296877	917.9183959960942	124.7067871093751	-3719.368652343752	818.2370605468755	133.7493286132813	-3766.360595703127	657.4473876953127	109.1855087280274	-3675.180175781252	691.3170166015627	164.2516784667969	-3738.115234375002	487.8881835937502	191.5561981201172	-3756.675048828127	350.3744506835939	202.845916748047	-3789.736083984377	417.3138122558596	122.1064682006837	-3802.631591796877	201.8587646484376	163.6557159423829	-3867.844970703127	181.0387268066407	217.4016876220704	-3697.166259765627	183.6134948730469	211.7527923583986	-3734.284912109377	155.8037567138672	154.5399627685547	-3646.316894531252	125.791732788086	248.4223937988282	-3613.430664062502	132.6628723144532	210.4127197265626	-3679.167968750002	106.3938446044922	130.3422088623047	-4075.327392578127	863.2498168945317	422.5237121582034	-4113.091308593752	757.5874633789065	403.3013916015627	-3975.264404296877	797.4025878906255	339.0608215332032	-4024.435791015627	711.3466796875002	323.7522583007814	-4188.459472656252	629.2080078125002	371.157684326172	-4111.867675781252	582.9367675781252	320.026580810547	-4314.144531250002	451.8178710937502	291.2609252929689	-4406.680664062502	364.9665527343751	277.1035461425782	-4359.118652343752	477.1722717285159	365.4563903808595	-4515.517089843752	298.4597473144532	329.2898864746095	-4567.560058593752	344.1336059570314	276.8990173339845	-4468.832031250002	198.8672027587892	283.279754638672	-4525.121093750002	217.3492584228517	331.0496215820314	-4488.042480468752	128.322250366211	231.9542388916017	-4466.002929687502	108.3389205932618	271.3816223144532	-4536.063476562502	134.171615600586	347.0511169433595	
106	0.42	-3998.651367187502	1599.408447265626	256.6893005371095	-3943.708984375002	1589.964965820313	409.3720703125002	-4008.616943359377	1592.510009765626	97.40634155273443	-3860.428466796877	1508.004150390625	225.5180969238282	-4062.885742187502	1412.39208984375	260.9208374023439	-4135.604492187502	1467.162719726563	19.74228477478028	-4238.496582031252	1371.180908203125	-4.32929563522339	-4202.202148437502	1225.619750976563	-17.85793113708497	-4180.395507812502	1091.570068359375	-10.36564636230469	-3933.461181640627	1416.082153320313	513.7934570312502	-3932.934814453127	1286.459594726563	566.588073730469	-3825.731689453127	1337.732788085938	495.5735778808596	-3728.992919921877	1382.843139648438	422.0598144531252	-3879.382812500002	1106.332641601563	336.2300720214845	-3896.167236328127	1122.795776367188	125.1623229980469	-4062.678222656252	1180.065795898438	245.4109497070314	-4080.028808593752	1150.605224609375	192.8885498046876	-4074.062988281252	1152.506591796875	299.9067382812501	-4109.000000000002	1098.745239257813	247.3101348876954	-3878.548583984377	847.4194335937505	65.65930175781253	-3813.808105468752	756.871765136719	85.0219650268555	-3759.701904296877	914.7816772460942	125.5995254516602	-3707.128906250002	814.862670898438	135.2562408447266	-3754.521972656252	654.9383544921877	109.6067199707032	-3664.029052734377	689.477233886719	165.3164978027344	-3722.268554687502	486.253356933594	192.2487945556642	-3736.230957031252	348.0371093750001	203.1140441894532	-3770.233154296877	413.7625732421877	121.8132553100587	-3776.883789062502	198.0706481933595	163.3622131347657	-3841.448486328127	175.6712646484376	216.6580657958986	-3671.040527343752	182.7692565917969	212.3264007568361	-3706.811279296877	153.6063079833985	154.9211120605469	-3618.632324218752	126.4960861206055	249.5922698974611	-3585.685302734377	134.1616210937501	211.8605194091798	-3649.991699218752	105.6119232177735	131.2218780517579	-4060.230712890627	864.6440429687505	422.3933105468752	-4098.156738281252	759.0640869140627	403.0086669921877	-3960.109863281252	798.7493286132817	338.863739013672	-4009.619873046877	712.724304199219	323.1867980957032	-4174.028320312502	631.0491333007815	370.6086730957032	-4097.276855468752	583.634460449219	319.9294433593751	-4302.200195312502	455.1805114746096	291.1501464843751	-4396.236328125002	370.2763671875001	277.040008544922	-4346.980468750002	481.8197326660159	364.887908935547	-4506.492675781252	305.7550354003907	328.872283935547	-4557.651855468752	351.7002868652345	275.5587463378907	-4460.184570312502	205.3821716308595	284.612274169922	-4516.869140625002	225.0484161376954	331.508026123047	-4480.736328125002	134.2763977050782	233.3744659423829	-4458.715820312502	114.4975585937501	273.144744873047	-4528.719726562502	142.3379821777344	348.6088867187501	
107	0.424	-3984.176757812502	1600.381713867188	256.517791748047	-3929.271972656252	1591.065063476563	409.0894470214846	-3993.922851562502	1593.728637695313	97.27541351318365	-3845.881835937502	1508.824584960938	225.2094879150392	-4048.333251953127	1413.188232421875	260.4621887207032	-4121.647460937502	1469.194946289063	20.0194435119629	-4224.924316406252	1373.553588867188	-4.13810443878174	-4188.490722656252	1227.841430664063	-17.4629192352295	-4166.626464843752	1093.70703125	-9.850504875183109	-3919.152587890627	1416.960083007813	513.382751464844	-3918.654785156252	1287.324096679688	566.1648559570315	-3811.928710937502	1339.33349609375	494.8604431152346	-3715.729248046877	1385.35791015625	421.1858825683596	-3864.297607421877	1107.57470703125	336.3656311035157	-3881.114501953127	1123.570556640625	125.2238006591797	-4047.897949218752	1180.633056640625	245.3773345947267	-4064.986083984377	1151.127685546875	192.8193664550782	-4059.157470703127	1153.261352539063	299.8851013183595	-4094.068603515627	1099.330810546875	247.4121704101564	-3864.945556640627	847.0432739257817	65.8249435424805	-3801.672119140627	755.590270996094	84.69432067871097	-3746.023193359377	911.3269653320317	126.7732772827149	-3695.139160156252	810.8264160156255	137.1659088134766	-3742.640625000002	652.4573974609377	109.8620681762696	-3652.958007812502	687.2994384765627	166.4301147460938	-3706.937011718752	484.4683532714846	192.9505004882814	-3716.205322265627	345.8712158203126	203.2790832519532	-3751.079833984377	410.4831237792971	121.5999908447266	-3751.009277343752	194.4544219970704	163.3822784423829	-3815.575683593752	170.6966552734376	215.6768798828126	-3645.418212890627	182.1900939941407	212.896942138672	-3679.943603515627	151.7867584228516	155.3402252197266	-3591.849609375002	127.517692565918	250.9291534423829	-3558.772949218752	135.7650756835938	213.3618011474611	-3621.722656250002	105.151596069336	132.2246704101563	-4044.837646484377	865.7089843750005	422.188659667969	-4082.920166015627	760.3309326171877	402.7266540527346	-3944.887695312502	799.900268554688	338.5002441406251	-3993.947753906252	713.8986816406252	323.1307983398439	-4159.100585937502	632.6624145507815	369.9417419433595	-4082.369873046877	583.9099731445315	319.9256591796876	-4290.001953125002	458.5402526855471	291.032928466797	-4385.475097656252	375.4508666992189	276.7152099609376	-4334.921875000002	486.3183593750002	364.3471984863282	-4497.328613281252	313.3826293945314	328.4068908691407	-4547.885253906252	359.1900024414064	274.2453613281251	-4452.333007812502	211.8091430664064	285.4715576171876	-4508.750976562502	233.0295410156251	332.0721130371095	-4472.559082031252	140.4892120361329	235.4053802490236	-4450.941894531252	121.0385894775391	275.4895629882814	-4521.026367187502	150.4880371093751	350.283905029297	
108	0.428	-3969.352050781252	1601.095947265626	256.2665100097657	-3914.638427734377	1591.916992187501	408.6932373046877	-3979.130126953127	1594.766845703126	97.03353881835943	-3831.475097656252	1509.786376953125	224.8439941406251	-4034.002197265627	1413.815063476563	259.9676818847657	-4107.414550781252	1470.973999023438	20.19243812561036	-4210.922851562502	1375.6875	-4.007266044616701	-4174.827148437502	1229.789428710938	-17.02884483337403	-4153.033691406252	1095.768676757813	-9.317589759826664	-3904.850341796877	1417.805786132813	512.8936157226565	-3904.468750000002	1288.040161132813	565.7246093750002	-3798.046386718752	1340.598022460938	494.3415527343752	-3702.409423828127	1387.266845703125	420.3631896972659	-3849.767822265627	1108.548706054688	336.0475463867189	-3866.162109375002	1124.199340820313	125.4570541381837	-4033.200683593752	1181.061401367188	245.1617584228517	-4050.070556640627	1151.381713867188	192.7562713623048	-4044.406738281252	1153.8046875	299.8663024902345	-4079.140380859377	1099.765869140625	247.5245361328126	-3851.010009765627	846.5817260742192	65.67960357666018	-3789.270019531252	753.8005981445315	84.36153411865237	-3732.880126953127	907.699584960938	127.9923629760743	-3683.754638671877	806.4409179687505	139.1662292480469	-3731.036621093752	649.6879882812502	110.2566986083985	-3641.900390625002	684.7744140625002	167.4695129394532	-3691.750976562502	482.6148986816409	193.5135498046876	-3696.341308593752	343.7314453125001	203.8016510009767	-3732.214111328127	407.2892150878909	121.3712844848633	-3726.095947265627	191.5362091064454	162.8190460205079	-3790.233886718752	166.0716857910157	214.6144866943361	-3620.599853515627	181.8881835937501	213.4072418212892	-3653.597412109377	149.7430877685547	155.7710113525391	-3565.930175781252	128.9701385498047	252.4866180419923	-3532.831542968752	137.6496124267579	214.9139099121095	-3594.377685546877	104.9493637084962	133.5870819091797	-4029.317626953127	866.5654296875005	422.002136230469	-4067.314453125002	761.151550292969	402.4340515136721	-3929.303710937502	800.8303833007817	338.199676513672	-3978.185546875002	714.831237792969	322.6925659179689	-4143.749023437502	633.9305419921877	369.3904113769532	-4067.188476562502	583.8514404296877	319.712860107422	-4277.485839843752	461.9634094238284	290.7159423828126	-4375.313476562502	380.4592590332032	277.1062927246095	-4322.623535156252	490.9243164062502	363.7717895507814	-4487.867187500002	321.0811462402345	327.8678283691407	-4538.031250000002	366.6979064941407	273.065155029297	-4443.034667968752	218.9140930175782	286.7020874023439	-4498.792968750002	241.1314086914064	332.8437805175782	-4463.998046875002	146.7740631103516	237.6651153564454	-4442.995117187502	127.3744506835938	278.1593322753907	-4513.014648437502	158.8581542968751	352.1704406738282	
